<svg width="206" height="26" viewBox="0 0 206 26" fill="none" xmlns="http://www.w3.org/2000/svg">
  <path d="M203.641 4.79932C204.943 4.79932 205.999 5.86182 205.999 7.16009C205.999 8.45835 204.943 9.5257 203.641 9.5257C202.34 9.5257 201.297 8.46319 201.297 7.16009C201.297 5.85698 202.34 4.79932 203.641 4.79932ZM203.641 9.03804C204.66 9.03804 205.463 8.21936 205.463 7.16009C205.463 6.10081 204.662 5.28697 203.641 5.28697C202.621 5.28697 201.82 6.10565 201.82 7.16009C201.82 8.21452 202.615 9.03804 203.641 9.03804ZM203.559 7.50403H203.373V8.42444H202.821V5.86021H203.776C204.274 5.86021 204.652 6.22353 204.652 6.67889C204.652 7.02929 204.441 7.31349 204.126 7.43298L204.67 8.42282H204.042L203.554 7.50241H203.558L203.559 7.50403ZM203.688 7.03898C203.947 7.03898 204.094 6.90495 204.094 6.68858C204.094 6.4722 203.947 6.3301 203.688 6.3301H203.375V7.03898H203.688Z" fill="#FE5B17"></path>
  <path d="M30.9863 12.679C30.9863 5.9358 36.047 1.87793 41.4305 1.87793C46.8141 1.87793 49.8257 4.9718 50.7622 8.59207L47.4552 9.69979C46.8416 7.19047 44.9103 5.17526 41.4289 5.17526C37.9475 5.17526 34.5872 7.65875 34.5872 12.679C34.5872 17.6993 37.9217 20.0907 41.4612 20.0907C45.0008 20.0907 46.932 17.8721 47.6328 15.5387L50.851 16.5899C49.9145 20.0923 46.756 23.4478 41.4612 23.4478C35.871 23.4446 30.9879 19.4174 30.9879 12.6774L30.9863 12.679Z" fill="#FE5B17"></path>
  <path d="M66.6738 15.888C66.6738 20.2656 63.5444 23.4483 59.2733 23.4483C55.0023 23.4483 51.9004 20.2672 51.9004 15.888C51.9004 11.5088 55.0298 8.3584 59.2733 8.3584C63.5169 8.3584 66.6738 11.5395 66.6738 15.888ZM63.2521 15.888C63.2521 12.9395 61.3806 11.4216 59.275 11.4216C57.1693 11.4216 55.2978 12.9395 55.2978 15.888C55.2978 18.8365 57.2 20.4125 59.275 20.4125C61.3499 20.4125 63.2521 18.8656 63.2521 15.888Z" fill="#FE5B17"></path>
  <path d="M75.3348 23.0123H71.9422L66.1484 8.79761H69.8931L73.6667 18.956L77.3516 8.79761H80.9218L75.3348 23.0123Z" fill="#FE5B17"></path>
  <path d="M94.1151 18.9543C93.3529 21.4345 91.1036 23.4497 87.6787 23.4497C83.8162 23.4497 80.3945 20.6481 80.3945 15.8313C80.3945 11.3359 83.729 8.35986 87.3283 8.35986C91.7156 8.35986 94.2911 11.2503 94.2911 15.7425C94.2911 16.2964 94.233 16.7647 94.2023 16.8228H83.7871C83.8759 18.9817 85.5714 20.5286 87.6787 20.5286C89.7859 20.5286 90.779 19.4484 91.2489 18.0484L94.1167 18.9526L94.1151 18.9543ZM90.8678 14.3441C90.8081 12.6793 89.6987 11.1921 87.3573 11.1921C85.2226 11.1921 83.9938 12.8279 83.8759 14.3441H90.8678Z" fill="#FE5B17"></path>
  <path d="M104.274 12.153C103.893 12.0949 103.516 12.0642 103.164 12.0642C100.53 12.0642 99.3301 13.5821 99.3301 16.2384V23.009H95.9375V8.79598H99.2429V11.0728C99.9162 9.52584 101.495 8.62158 103.367 8.62158C103.777 8.62158 104.129 8.67971 104.274 8.71039V12.1547V12.1514V12.153Z" fill="#FE5B17"></path>
  <path d="M111.87 8.7958H114.825V11.8009H111.87V18.3971C111.87 19.6518 112.426 20.1766 113.684 20.1766C114.154 20.1766 114.707 20.0878 114.853 20.0587V22.8603C114.649 22.9491 114.005 23.1816 112.776 23.1816C110.142 23.1816 108.507 21.6056 108.507 18.951V11.8009H105.873V8.7958H106.605C108.126 8.7958 108.799 7.83179 108.799 6.57713V4.44727H111.87V8.7958Z" fill="#FE5B17"></path>
  <path d="M128.428 8.15433C128.224 6.8706 127.139 4.97326 124.362 4.97326C122.256 4.97326 120.792 6.37487 120.792 7.94925C120.792 9.26366 121.61 10.2567 123.219 10.6071L126.201 11.2207C129.857 11.9506 131.817 14.2549 131.817 17.1743C131.817 20.3861 129.213 23.4493 124.473 23.4493C119.208 23.4493 116.777 20.0647 116.456 17.0855L119.734 16.1522C119.937 18.3111 121.488 20.2973 124.473 20.2973C126.96 20.2973 128.247 19.0426 128.247 17.4359C128.247 16.0925 127.252 15.0138 125.468 14.6343L122.542 14.0207C119.382 13.3781 117.276 11.3079 117.276 8.21407C117.276 4.74074 120.465 1.87939 124.328 1.87939C129.213 1.87939 131.115 4.857 131.583 7.16125L128.423 8.15433H128.426H128.428Z" fill="#FE5B17"></path>
  <path d="M145.685 8.79614L149.049 18.6332L151.886 8.79614H155.338L150.773 23.0108H147.381L143.841 12.7959L140.389 23.0108H136.908L132.286 8.79614H135.913L138.81 18.6332L142.173 8.79614H145.687H145.685Z" fill="#FE5B17"></path>
  <path d="M160.077 14.8688L163.733 14.3149C164.552 14.197 164.788 13.7901 164.788 13.2928C164.788 12.0963 163.969 11.1339 162.094 11.1339C160.219 11.1339 159.315 12.2706 159.168 13.7029L156.068 13.0021C156.331 10.5509 158.555 8.36133 162.065 8.36133C166.452 8.36133 168.12 10.8416 168.12 13.6739V20.7384C168.12 22.0221 168.267 22.8683 168.295 23.0152H165.135C165.106 22.9264 164.988 22.3435 164.988 21.2067C164.315 22.2886 162.911 23.4544 160.601 23.4544C157.618 23.4544 155.772 21.4101 155.772 19.164C155.772 16.624 157.646 15.2256 160.073 14.8736L160.077 14.8688ZM164.788 17.1165V16.4738L161.074 17.0277C160.019 17.2021 159.172 17.7883 159.172 18.9541C159.172 19.9181 159.903 20.7933 161.248 20.7933C163.15 20.7933 164.788 19.8891 164.788 17.1165Z" fill="#FE5B17"></path>
  <path d="M178.8 12.153C178.419 12.0949 178.039 12.0642 177.687 12.0642C175.054 12.0642 173.855 13.5821 173.855 16.2384V23.009H170.463V8.79598H173.767V11.0728C174.44 9.52584 176.019 8.62158 177.892 8.62158C178.303 8.62158 178.655 8.67971 178.798 8.71039V12.1547L178.801 12.1514L178.8 12.153Z" fill="#FE5B17"></path>
  <path d="M180.468 23.0114V8.79516H183.716V10.6037C184.534 9.14556 186.32 8.38501 187.93 8.38501C189.803 8.38501 191.441 9.23114 192.2 10.8943C193.311 9.02607 194.979 8.38501 196.821 8.38501C199.397 8.38501 201.853 10.0208 201.853 13.7847V23.0082H198.575V14.3386C198.575 12.6738 197.727 11.4191 195.825 11.4191C194.042 11.4191 192.87 12.8207 192.87 14.5711V23.0066H189.535V14.3386C189.535 12.7029 188.717 11.4191 186.785 11.4191C184.972 11.4191 183.83 12.7626 183.83 14.5711V23.0066H180.467V23.0098L180.468 23.0114Z" fill="#FE5B17"></path>
  <g clip-path="url(#clip0_2953_17551)">
    <path d="M8.10281 2.70094L6.75234 1.35047L5.40187 0L0 5.40187L1.35047 6.75234L2.70094 8.10281L4.0514 9.45328L1.35047 12.1542H8.00017C8.17483 9.93944 9.93944 8.17483 12.1542 8.00017V1.35047L9.45328 4.0514L8.10281 2.70094ZM17.0285 12.1542H23.6782L20.9773 9.45328L22.3277 8.10281L23.6782 6.75234L25.0287 5.40187L19.6268 0L18.2763 1.35047L16.9259 2.70094L15.5754 4.0514L12.8745 1.35047V8.00017C15.0892 8.17483 16.8538 9.93944 17.0285 12.1542ZM22.3277 16.9259L20.9773 15.5754L23.6782 12.8745H17.0285C16.8538 15.0892 15.0892 16.8538 12.8745 17.0285V23.6782L15.5754 20.9773L16.9259 22.3277L18.2763 23.6782L19.6268 25.0287L25.0287 19.6268L23.6782 18.2763L22.3277 16.9259ZM8.00017 12.8745H1.35047L4.0514 15.5754L2.70094 16.9259L1.35047 18.2763L0 19.6268L5.40187 25.0287L6.75234 23.6782L8.10281 22.3277L9.45328 20.9773L12.1542 23.6782V17.0285C9.93944 16.8538 8.17483 15.0892 8.00017 12.8745Z" fill="#FE5B17"></path>
  </g>
  <defs>
    <clipPath id="clip0_2953_17551">
      <rect width="25.0287" height="25.0287" fill="white"></rect>
    </clipPath>
  </defs>
</svg>
